leg39_CMCTool_states
nRows=7
nColumns=41

# SIMM Motion File Header:
name leg39_CMCTool_states
datacolumns 41
datarows 7
otherdata 1
range 0.20100000000000004000 0.20250000000000004000
endheader
time	pelvis_tilt	hip_angle_r	knee_angle_r	tib_tx_r	tib_ty_r	pat_angle_r	pat_tx_r	pat_ty_r	ankle_angle_r	subtalar_angle_r	mtp_angle_r	pelvis_tilt_u	hip_angle_r_u	knee_angle_r_u	tib_tx_r_u	tib_ty_r_u	pat_angle_r_u	pat_tx_r_u	pat_ty_r_u	ankle_angle_r_u	subtalar_angle_r_u	mtp_angle_r_u	bifemlh_r.activation	bifemlh_r.fiber_length	bifemsh_r.activation	bifemsh_r.fiber_length	glut_max2_r.activation	glut_max2_r.fiber_length	psoas_r.activation	psoas_r.fiber_length	rect_fem_r.activation	rect_fem_r.fiber_length	vas_int_r.activation	vas_int_r.fiber_length	med_gas_r.activation	med_gas_r.fiber_length	soleus_r.activation	soleus_r.fiber_length	tib_ant_r.activation	tib_ant_r.fiber_length
      0.20100000000000004000	      0.00000000000003473211	     23.53363961834927300000	    -54.62639272865376900000	      0.00436221390487710750	     -0.47435998156644321000	     17.25621564965361900000	      0.04437747297330185700	     -0.02312310302768324400	      4.02851034558843770000	      0.00000000000000493589	      0.00000000000003845286	      0.00000000000018564831	     59.61988918825468900000	    245.83137653337565000000	     -0.02438017420629758800	      0.07142318676492777400	     -7.96433994202455060000	      0.07016875062582785000	     -0.00922632316901272380	     20.52875976517955100000	      0.00000000000008207898	      0.00000000000039000223	      0.02545515127291609100	      0.09905791591000615000	      0.05274214521517395200	      0.16852779324983455000	      0.01999999999999993400	      0.11412546030127926000	      0.33440202397256830000	      0.08847283381030003600	      0.11152083867731225000	      0.14521983306695366000	      0.02032698470161405400	      0.12514776377191442000	      0.02130422379546716100	      0.08664712614861380700	      0.01999999999999993400	      0.09324709956030834100	      0.28823345930582417000	      0.08371412971910019400
      0.20125000000000004000	      0.00000000000003477906	     23.54851888694658200000	    -54.56486323750554800000	      0.00435610182947895800	     -0.47434211073628707000	     17.25421753582943300000	      0.04439503166831577200	     -0.02312541273441014500	      4.03365244644629950000	      0.00000000000000495599	      0.00000000000003854927	      0.00000000000018952042	     59.41416605548923300000	    246.40460932998124000000	     -0.02451648583501131100	      0.07154340414383474100	     -8.02063161005310650000	      0.07030078617724287700	     -0.00925134101422269910	     20.60791788488962000000	      0.00000000000007898866	      0.00000000000038024452	      0.02542116290180300400	      0.09911423506287928000	      0.05253814497266243900	      0.16856460697486028000	      0.01999999999999993400	      0.11413949977650788000	      0.33336883835244380000	      0.08846300551808550200	      0.11136757223552732000	      0.14515759646106172000	      0.02040614839199457500	      0.12510139760550659000	      0.02129609781689073900	      0.08667252907566966300	      0.01999999999999993400	      0.09325101834061876000	      0.28848809728348129000	      0.08370970371780614400
      0.20150000000000004000	      0.00000000000003482653	     23.56334665409514500000	    -54.50319039459824900000	      0.00434995563347414380	     -0.47432420988933771000	     17.25220530323569100000	      0.04441262335498828000	     -0.02312772870343270100	      4.03881424107362540000	      0.00000000000000497519	      0.00000000000003864612	      0.00000000000018821836	     59.20787584484377000000	    246.97819397957991000000	     -0.02465313910897914600	      0.07166332173935463500	     -8.07729056031660160000	      0.07043268470282682000	     -0.00927642173215908330	     20.68631419901613800000	      0.00000000000007410671	      0.00000000000039185047	      0.02538738629555456100	      0.09917058813212356600	      0.05233541575557309300	      0.16860150525773707000	      0.01999999999999993400	      0.11415349187667050000	      0.33234209000500498000	      0.08845324783536329100	      0.11121526072174381000	      0.14509542305926443000	      0.02048335752390453200	      0.12505484981510073000	      0.02128802246729996600	      0.08669799923908072500	      0.01999999999999993400	      0.09325495027783863000	      0.28873644822709837000	      0.08370525769783535000
      0.20175000000000004000	      0.00000000000003487375	     23.57812277681067000000	    -54.44137410970744600000	      0.00434377523144069320	     -0.47430627910014883000	     17.25017885971312400000	      0.04443024799959170000	     -0.02313005095060759500	      4.04399554197605940000	      0.00000000000000499452	      0.00000000000003874397	      0.00000000000018923994	     59.00100923122614900000	    247.55214752112187000000	     -0.02479013400983089800	      0.07178294237957849600	     -8.13431947202369270000	      0.07056445013080824000	     -0.00930156639199172450	     20.76397135454378400000	      0.00000000000007909006	      0.00000000000039064191	      0.02535382013476779000	      0.09922697512558965900	      0.05213394964477011100	      0.16863848814164345000	      0.01999999999999993400	      0.11416743650685975000	      0.33132173882276411000	      0.08844355885649073100	      0.11106389818627389000	      0.14503330399792702000	      0.02055866035556428600	      0.12500813164649355000	      0.02127999743125047500	      0.08672353662679981000	      0.01999999999999993400	      0.09325889551281216200	      0.28897866736409822000	      0.08370079272089313300
      0.20200000000000004000	      0.00000000000003492144	     23.59284711005834400000	    -54.37941428909174800000	      0.00433756053803493680	     -0.47428831844278557000	     17.24813811245422800000	      0.04444790556916700100	     -0.02313237949203135500	      4.04919616655648710000	      0.00000000000000501413	      0.00000000000003884158	      0.00000000000019315980	     58.79355907934073900000	    248.12648122746319000000	     -0.02492746994522675500	      0.07190226719700498800	     -8.19172085688607860000	      0.07069608473325375600	     -0.00932677584988127370	     20.84090585516028300000	      0.00000000000007817904	      0.00000000000039260937	      0.02532046310826027000	      0.09928339605144488600	      0.05193373877045794800	      0.16867555567288242000	      0.01999999999999993400	      0.11418133357068531000	      0.33030774494812348000	      0.08843393676813515700	      0.11091347871649927000	      0.14497123090132708000	      0.02063210395369449400	      0.12496125246492765000	      0.02127202239526327200	      0.08674914120699177300	      0.01999999999999993400	      0.09326285417523068300	      0.28921490608932493000	      0.08369630980087598700
      0.20225000000000004000	      0.00000000000003496979	     23.60751950726028200000	    -54.31731083680947600000	      0.00433131146812385390	     -0.47427032799121144000	     17.24608296804162700000	      0.04446559603114590800	     -0.02313471434399174200	      4.05441593556348500000	      0.00000000000000503358	      0.00000000000003894002	      0.00000000000019298949	     58.58552013220372600000	    248.70120157581434000000	     -0.02506514583554212600	      0.07202129591587337600	     -8.24949708620149020000	      0.07082758940676789300	     -0.00935205078501056930	     20.91712795395233100000	      0.00000000000007832733	      0.00000000000038851431	      0.02528731391301891300	      0.09933985091798190600	      0.05173477531187388500	      0.16871270790003559000	      0.01999999999999993400	      0.11419518297028554000	      0.32930006877181850000	      0.08842437984492196300	      0.11076399643664030000	      0.14490919585218381000	      0.02070373422293434900	      0.12491422005121468000	      0.02126409704781250300	      0.08677481293066266500	      0.01999999999999993400	      0.09326682638413393000	      0.28944531205967061000	      0.08369180990560870500
      0.20250000000000004000	      0.00000000000003501792	     23.62213982073114600000	    -54.25506365581288300000	      0.00432502793689750610	     -0.47425230781960942000	     17.24401333248026100000	      0.04448331935303728700	     -0.02313705552292739600	      4.05965467152620360000	      0.00000000000000505334	      0.00000000000003903767	      0.00000000000019226445	     58.37688874657342100000	    249.27631106150940000000	     -0.02520316018689649400	      0.07214002709295497300	     -8.30765041368174370000	      0.07095896390776285100	     -0.00937739172980645890	     20.99264164968851900000	      0.00000000000007815738	      0.00000000000039850735	      0.02525437125414906800	      0.09939633973342952600	      0.05153705149698253900	      0.16874994487317546000	      0.01999999999999993400	      0.11420898460639627000	      0.32829867093137050000	      0.08841488644529042800	      0.11061544550752643000	      0.14484719136423888000	      0.02077359593453346700	      0.12486704085247176000	      0.02125622107931327700	      0.08680055173379504200	      0.01999999999999993400	      0.09327081224834252200	      0.28967002928636576000	      0.08368729395855750700
